<?xml version="1.0" encoding="UTF-8" standalone="no"?>
<svg
   xmlns:dc="http://purl.org/dc/elements/1.1/"
   xmlns:cc="http://creativecommons.org/ns#"
   xmlns:rdf="http://www.w3.org/1999/02/22-rdf-syntax-ns#"
   xmlns:svg="http://www.w3.org/2000/svg"
   xmlns="http://www.w3.org/2000/svg"
   xmlns:sodipodi="http://sodipodi.sourceforge.net/DTD/sodipodi-0.dtd"
   xmlns:inkscape="http://www.inkscape.org/namespaces/inkscape"
   width="220"
   height="100.251"
   viewBox="0 0 165 75.188246"
   version="1.2"
   id="svg5"
   sodipodi:docname="logo.svg"
   inkscape:version="1.0.1 (3bc2e813f5, 2020-09-07)">
  <metadata
     id="metadata11">
    <rdf:RDF>
      <cc:Work
         rdf:about="">
        <dc:format>image/svg+xml</dc:format>
        <dc:type
           rdf:resource="http://purl.org/dc/dcmitype/StillImage" />
        <dc:title></dc:title>
      </cc:Work>
    </rdf:RDF>
  </metadata>
  <defs
     id="defs9" />
  <sodipodi:namedview
     pagecolor="#ffffff"
     bordercolor="#666666"
     borderopacity="1"
     objecttolerance="10"
     gridtolerance="10"
     guidetolerance="10"
     inkscape:pageopacity="0"
     inkscape:pageshadow="2"
     inkscape:window-width="2560"
     inkscape:window-height="1017"
     id="namedview7"
     showgrid="false"
     units="px"
     inkscape:snap-bbox="true"
     inkscape:bbox-paths="true"
     inkscape:bbox-nodes="true"
     inkscape:snap-bbox-edge-midpoints="true"
     inkscape:snap-bbox-midpoints="true"
     inkscape:zoom="2.17"
     inkscape:cx="94.544856"
     inkscape:cy="91.393719"
     inkscape:window-x="-8"
     inkscape:window-y="-8"
     inkscape:window-maximized="1"
     inkscape:current-layer="svg5"
     inkscape:document-rotation="0">
    <sodipodi:guide
       position="0,224.99999"
       orientation="0,300"
       id="guide836" />
    <sodipodi:guide
       position="224.99999,224.99999"
       orientation="300,0"
       id="guide838" />
    <sodipodi:guide
       position="224.99999,0"
       orientation="0,-300"
       id="guide840" />
    <sodipodi:guide
       position="0,0"
       orientation="-300,0"
       id="guide842" />
  </sodipodi:namedview>
  <g
     id="surface1"
     transform="matrix(2.7492836,0,0,2.7492836,-18.707993,-65.381409)">
    <path
       style="fill:#ff7f45;fill-opacity:1;fill-rule:nonzero;stroke:none"
       d="m 65.980469,47.667969 c 0,0.140625 -0.05469,0.257812 -0.160157,0.355469 -0.101562,0.09766 -0.230468,0.144531 -0.375,0.144531 -0.320312,0 -0.5625,-0.289063 -0.722656,-0.871094 h -0.05859 c -0.414062,0.527344 -0.960937,0.789063 -1.640624,0.789063 -0.59375,0 -1.085938,-0.199219 -1.480469,-0.605469 -0.394531,-0.402344 -0.59375,-0.898438 -0.59375,-1.488281 0,-0.589844 0.199219,-1.089844 0.597656,-1.496094 0.402344,-0.410156 0.890625,-0.613282 1.476563,-0.613282 h 0.859374 c 0.125,0 0.230469,-0.04297 0.316407,-0.125 0.08203,-0.08594 0.125,-0.1875 0.125,-0.3125 0,-0.128906 -0.04297,-0.238281 -0.125,-0.328124 -0.08594,-0.08594 -0.191407,-0.128907 -0.316407,-0.128907 h -0.40625 c -0.328124,0 -0.660156,0.06641 -1.003906,0.207031 -0.386718,0.425782 -0.695312,0.640626 -0.929687,0.640626 -0.359375,0 -0.535157,-0.175782 -0.535157,-0.535157 0,-0.316406 0.308594,-0.558593 0.929688,-0.722656 0.453125,-0.261719 0.964844,-0.394531 1.539062,-0.394531 h 0.40625 c 0.34375,0 0.632813,0.125 0.875,0.371094 0.238282,0.25 0.359376,0.542968 0.359376,0.886718 0,0.339844 -0.121094,0.632813 -0.359376,0.878906 -0.242187,0.246094 -0.53125,0.367188 -0.875,0.367188 h -0.859374 c -0.375,0 -0.683594,0.128906 -0.925782,0.382812 -0.246094,0.257813 -0.367187,0.5625 -0.367187,0.921876 0,0.355468 0.125,0.664062 0.378906,0.925781 0.25,0.257812 0.554687,0.390625 0.914063,0.390625 0.441406,0 0.875,-0.449219 1.300781,-1.339844 0,-0.07031 0.03125,-0.234375 0.09375,-0.492188 0.07031,-0.300781 0.175781,-0.453124 0.316406,-0.453124 0.128906,0 0.230469,0.152343 0.300781,0.453124 0.05469,0.15625 0.08203,0.328126 0.08203,0.519532 0,0.191406 0.04297,0.390625 0.128906,0.601562 h 0.01172 l 0.01172,0.02344 -0.02344,-0.01172 c 0.0078,0.03125 0.03125,0.07031 0.07031,0.117187 0.441406,0.410157 0.664063,0.722657 0.664063,0.941407 m -7.875,-4.703125 c 0.04687,0.09375 0.09766,0.199218 0.152343,0.324218 0.28125,-0.394531 0.625,-0.671874 1.039063,-0.828124 h -0.01172 c 0.355469,-0.175782 0.625,-0.28125 0.800782,-0.3125 0.02344,-0.0078 0.04687,-0.01172 0.07031,-0.01172 h 0.04687 c 0.304687,0 0.476563,0.140625 0.523437,0.417969 0.0078,0.02344 0.01172,0.07812 0.01172,0.164062 0,0.34375 -0.304687,0.511719 -0.917969,0.511719 h -0.152343 c -0.0625,0 -0.113281,-0.0039 -0.152344,-0.01172 -0.464844,0.179688 -0.804687,0.605469 -1.011719,1.28125 l 0.02344,0.117188 h -0.02344 v 1.375 c -0.03516,0.394531 -0.152344,0.792968 -0.359375,1.199218 -0.04297,0.144532 -0.113281,0.335938 -0.210937,0.570313 V 47.75 c -0.125,0.253906 -0.300782,0.382812 -0.523438,0.382812 -0.148437,0 -0.273437,-0.04687 -0.375,-0.136718 -0.101562,-0.09375 -0.152344,-0.214844 -0.152344,-0.363282 0,-0.246093 0.207032,-0.550781 0.617188,-0.914062 0.140625,-0.328125 0.210938,-0.671875 0.210938,-1.035156 V 44.394531 C 57.695312,44.054688 57.628906,43.753906 57.503906,43.5 c -0.414062,-0.398438 -0.621094,-0.710938 -0.621094,-0.945312 0,-0.152344 0.05078,-0.28125 0.152344,-0.382813 0.101563,-0.101563 0.226563,-0.152344 0.375,-0.152344 0.207032,0 0.378906,0.128907 0.511719,0.386719 0.0078,0.01563 0.07031,0.195312 0.183594,0.546875 l 0.01172,0.01172 z m -4.121094,0 c 0.04687,0.09375 0.09766,0.199218 0.152344,0.324218 0.28125,-0.394531 0.625,-0.671874 1.035156,-0.828124 h -0.01172 c 0.359375,-0.175782 0.625,-0.28125 0.804688,-0.3125 0.02344,-0.0078 0.04687,-0.01172 0.07031,-0.01172 h 0.04687 c 0.300781,0 0.476563,0.140625 0.523438,0.417969 0.0078,0.02344 0.01172,0.07812 0.01172,0.164062 0,0.34375 -0.304688,0.511719 -0.917969,0.511719 h -0.152344 c -0.0625,0 -0.113281,-0.0039 -0.152344,-0.01172 -0.464843,0.179688 -0.804687,0.605469 -1.011719,1.28125 l 0.02344,0.117188 h -0.02344 v 1.375 c -0.03516,0.394531 -0.152343,0.792968 -0.359374,1.199218 -0.04297,0.144532 -0.113282,0.335938 -0.210938,0.570313 V 47.75 c -0.125,0.253906 -0.300781,0.382812 -0.527344,0.382812 -0.144531,0 -0.269531,-0.04687 -0.371094,-0.136718 -0.101562,-0.09375 -0.152343,-0.214844 -0.152343,-0.363282 0,-0.246093 0.207031,-0.550781 0.617187,-0.914062 0.140625,-0.328125 0.210938,-0.671875 0.210938,-1.035156 V 44.394531 C 53.574219,44.054688 53.503906,43.753906 53.382812,43.5 52.96875,43.101562 52.761719,42.789062 52.761719,42.554688 c 0,-0.152344 0.05078,-0.28125 0.152343,-0.382813 0.101563,-0.101563 0.226563,-0.152344 0.371094,-0.152344 0.210938,0 0.382813,0.128907 0.515625,0.386719 0.0078,0.01563 0.07031,0.195312 0.183594,0.546875 l 0.01172,0.01172 z m -1.640625,1.332031 v 0.02734 c 0,0.269531 -0.08984,0.496093 -0.273438,0.671875 -0.183593,0.171875 -0.40625,0.261718 -0.671874,0.261718 H 50.03125 c -0.367188,0.09375 -0.65625,0.140626 -0.863281,0.140626 -0.148438,0 -0.273438,-0.05078 -0.375,-0.152344 -0.101563,-0.101563 -0.152344,-0.230469 -0.152344,-0.382813 0,-0.15625 0.05078,-0.285156 0.152344,-0.386719 0.101562,-0.101562 0.222656,-0.152343 0.371093,-0.152343 0.179688,0 0.4375,0.04297 0.78125,0.128906 h 1.433594 c 0.113282,0 0.171875,-0.05859 0.171875,-0.171875 v -0.02344 c 0,-0.386718 -0.136719,-0.691406 -0.417969,-0.925781 -0.277343,-0.230469 -0.628906,-0.34375 -1.054687,-0.34375 -0.480469,0 -0.871094,0.238281 -1.171875,0.71875 -0.261719,0.417969 -0.394531,0.898438 -0.394531,1.441407 0,0.523437 0.128906,0.996093 0.382812,1.414062 0.296875,0.496094 0.691407,0.746094 1.183594,0.746094 0.320313,0 0.554687,-0.02734 0.710937,-0.08203 0.402344,-0.429687 0.714844,-0.640624 0.9375,-0.640624 0.359376,0 0.535157,0.175781 0.535157,0.535156 0,0.214844 -0.132813,0.398437 -0.394531,0.546875 -0.140626,0.05469 -0.332032,0.117187 -0.570313,0.1875 l 0.01172,-0.01172 c -0.335938,0.160156 -0.746094,0.242188 -1.234375,0.242188 -0.722657,0 -1.308594,-0.320313 -1.757813,-0.964844 -0.398437,-0.566406 -0.59375,-1.226563 -0.59375,-1.980469 0,-0.746094 0.195313,-1.40625 0.59375,-1.980469 0.453125,-0.652344 1.039063,-0.976562 1.761719,-0.976562 0.695313,0 1.246094,0.183594 1.652344,0.554687 0.410156,0.371094 0.613281,0.890625 0.613281,1.5625 m -5.785156,-4.691406 c 0.292968,0.109375 0.488281,0.183594 0.582031,0.222656 0.214844,0.125 0.324219,0.292969 0.324219,0.511719 0,0.15625 -0.05078,0.285156 -0.15625,0.382812 -0.105469,0.101563 -0.234375,0.152344 -0.390625,0.152344 -0.242188,0 -0.558594,-0.226562 -0.953125,-0.675781 -0.34375,-0.140625 -0.679688,-0.207031 -1.015625,-0.207031 h -0.10547 c -0.285156,0 -0.535156,0.03516 -0.742188,0.113281 v 6.617187 c 0.06641,0.269532 0.101563,0.519532 0.101563,0.742188 0,0.164062 -0.05078,0.300781 -0.148437,0.414062 -0.101563,0.113282 -0.230469,0.167969 -0.386719,0.167969 -0.144531,0 -0.269531,-0.05859 -0.367188,-0.171875 C 43.203125,47.761719 43.15625,47.625 43.15625,47.46875 c 0,-0.238281 0.05078,-0.523438 0.152344,-0.847656 v -6.523438 c -0.28125,-0.07031 -0.515625,-0.101562 -0.710938,-0.101562 H 42.375 c -0.167969,0.01953 -0.507812,0.09766 -1.011719,0.230468 -0.410156,0.433594 -0.730469,0.652344 -0.953125,0.652344 -0.359375,0 -0.539062,-0.179687 -0.539062,-0.535156 0,-0.242188 0.101562,-0.410156 0.304687,-0.511719 0.109375,-0.05469 0.300781,-0.128906 0.582031,-0.222656 0.480469,-0.277344 1.019532,-0.417969 1.617188,-0.417969 h 0.292969 c 0.238281,0.03906 0.589843,0.113282 1.046875,0.21875 0.351562,-0.144531 0.703125,-0.21875 1.058594,-0.21875 h 0.175781 c 0.589843,0 1.121093,0.140625 1.597656,0.417969 v -0.01172 z m 2.707031,10.546875 c 0,0 13.546875,0.570312 17.550781,-0.542969 M 33.917969,49.90625 c 0.253906,-0.0039 0.613281,-0.01172 0.847656,0.01172 m -0.488281,0.785156 c 0.261718,0.01172 0.53125,-0.0039 0.78125,-0.02734 0.535156,-0.04687 0.980468,0.121094 1.503906,0.0625 0.652344,-0.07813 1.292969,0.06641 1.972656,0.01563 1.25,-0.08984 2.535156,-0.210937 3.800782,-0.144531 2.382812,0.125 4.546874,0.125 6.84375,0.335937 1.332031,0.121094 2.851562,0.195313 4.246093,0.175782 1.023438,-0.01563 3.089844,0.07422 3.96875,-0.109375 -1.175781,0.06641 -2.414062,0 -3.566406,-0.07813 2.53125,-0.03906 5.171875,-0.03516 7.664063,-0.203125 -4.667969,0.242187 -9.386719,0.03906 -13.671876,-0.585938 5.011719,0.277344 11.515626,0.75 16.445313,0.128907 0.371094,-0.04688 0.789063,-0.117188 1.101563,-0.1875 -4.886719,0.800781 -11.230469,0.273437 -16.363282,-0.04688 -2.359375,-0.148437 -4.730468,-0.273437 -7.144531,-0.269531 -0.65625,-0.02344 -1.316406,-0.03516 -1.972656,-0.04297 -1.347657,-0.02344 -2.707031,-0.02734 -4.054688,0.0078 -1.195312,0.02734 -3.328125,0.04687 -3.785156,0.464844 0.382813,0.01563 0.808594,-0.03516 1.179687,-0.0078 -0.140624,0.03906 -0.300781,0.08594 -0.464843,0.109375 0.15625,0 0.328125,0.01172 0.476562,-0.01172 -0.121093,0.02344 -0.246093,0.05078 -0.292969,0.09375 0.191407,0.0078 0.457032,-0.05078 0.605469,-0.07812 0.08984,-0.01563 0.488281,-0.113282 0.605469,-0.09766 -0.300781,0.07813 -0.675781,0.15625 -0.917969,0.25 0.105469,0.0039 0.207031,-0.0039 0.304688,0.0078 -0.121094,0.03516 -0.363281,0.05078 -0.425781,0.101562 0.253906,-0.0078 0.480468,-0.03516 0.746093,-0.03125 0.214844,0 0.40625,0.0078 0.613281,-0.01563 -0.246093,0.03906 -0.574218,0.06641 -0.746093,0.132813 0.113281,0.01953 0.234375,0.0078 0.351562,0 -0.01563,0.0078 -0.02344,0.01563 -0.02734,0.02344 0.05078,-0.0039 0.121093,0.0078 0.175781,0.0039 0,0.01172 0.01172,0.02344 0.0039,0.03516 0,-0.0078 0.0039,-0.01563 0.0039,-0.02344 m -2.1875,-0.320312 h 34.76954 M 36.265625,44.46875 c -0.453125,-0.0078 -0.96875,0.07031 -0.96875,0.515625 0,0.269531 0.179687,0.398437 0.394531,0.398437 0.296875,0 0.484375,-0.191406 0.550782,-0.382812 0.01562,-0.04297 0.02344,-0.08984 0.02344,-0.132812 z m 0.0625,1.167969 -0.03125,-0.289063 h -0.01563 c -0.128906,0.179688 -0.375,0.339844 -0.699219,0.339844 -0.464843,0 -0.699219,-0.324219 -0.699219,-0.65625 0,-0.550781 0.492188,-0.855469 1.375,-0.851562 v -0.04688 c 0,-0.1875 -0.05078,-0.527343 -0.519531,-0.527343 -0.214843,0 -0.4375,0.06641 -0.597656,0.167969 L 35.046875,43.5 c 0.1875,-0.121094 0.464844,-0.203125 0.75,-0.203125 0.703125,0 0.871094,0.476563 0.871094,0.9375 v 0.855469 c 0,0.199218 0.01172,0.390625 0.03906,0.546875 z m -2.375,-1.355469 c 0,-0.05078 -0.0039,-0.125 -0.01563,-0.175781 C 33.875,43.839844 33.648438,43.625 33.335938,43.625 c -0.429688,0 -0.683594,0.375 -0.683594,0.882812 0,0.464844 0.226562,0.847657 0.675781,0.847657 0.277344,0 0.53125,-0.1875 0.609375,-0.496094 0.01172,-0.05859 0.01563,-0.117187 0.01563,-0.179687 z m 0.417969,-2 v 2.765625 c 0,0.203125 0.0039,0.433594 0.01953,0.589844 h -0.375 l -0.01953,-0.394531 h -0.0078 c -0.128906,0.253906 -0.40625,0.449218 -0.78125,0.449218 -0.550781,0 -0.976562,-0.46875 -0.976562,-1.164062 -0.0039,-0.761719 0.46875,-1.230469 1.023437,-1.230469 0.351563,0 0.585938,0.164063 0.691406,0.351563 h 0.0078 V 42.28125 Z m 31.609375,-9.632812 c 0,0.04687 -0.03516,0.109374 -0.105469,0.191406 -0.132812,-0.03516 -0.265625,-0.05078 -0.398438,-0.05078 -0.277343,0 -0.511718,0.0625 -0.703124,0.183594 -0.226563,0.144532 -0.339844,0.34375 -0.339844,0.605469 0,0.164063 0.121094,0.375 0.363281,0.628906 0.363281,0.382813 0.589844,0.640625 0.671875,0.773438 0.242188,0.359375 0.363281,0.746093 0.363281,1.15625 0,0.242187 -0.04687,0.496093 -0.140625,0.765625 -0.109375,0.296875 -0.246094,0.515625 -0.414062,0.652344 -0.347656,0.304687 -0.757813,0.558593 -1.226563,0.765624 -0.503906,0.21875 -0.96875,0.328126 -1.394531,0.328126 -0.09766,0 -0.308594,-0.257813 -0.636719,-0.769532 -0.328125,-0.515625 -0.492187,-0.828125 -0.492187,-0.941406 0,-0.04297 0.02734,-0.06641 0.07813,-0.07813 0.332031,-0.05859 0.664062,-0.121094 1,-0.183594 0.414062,-0.132812 0.625,-0.351562 0.625,-0.652343 0,-0.207032 -0.121094,-0.449219 -0.363281,-0.722657 -0.429688,-0.476562 -0.65625,-0.730469 -0.671876,-0.757812 -0.242187,-0.34375 -0.363281,-0.703125 -0.363281,-1.078125 0,-0.710938 0.359375,-1.3125 1.078125,-1.808594 0.644532,-0.441406 1.332032,-0.660156 2.0625,-0.660156 0.07813,0 0.261719,0.253906 0.5625,0.761718 0.296875,0.507813 0.445313,0.804688 0.445313,0.890626 M 47.6875,31.679688 c 0,0.144531 -0.01563,0.359374 -0.05078,0.644531 -0.03516,0.289062 -0.05469,0.5 -0.05469,0.636719 0,0.132812 -0.01172,0.222656 -0.04297,0.257812 -0.02734,0.03906 -0.105468,0.09375 -0.234374,0.164062 -0.609376,0.335938 -1.285157,0.503907 -2.027344,0.503907 -1.367188,0 -2.050782,-0.523438 -2.050782,-1.566407 0,-0.3125 0.01172,-0.78125 0.03906,-1.410156 0.02344,-0.625 0.03516,-1.09375 0.03516,-1.40625 0,-0.207031 -0.121093,-0.3125 -0.363281,-0.3125 h -0.09375 c -0.03906,0.0039 -0.07031,0.0078 -0.08984,0.0078 -0.179687,0 -0.269531,-0.06641 -0.269531,-0.191407 0,-0.07812 0.0039,-0.191406 0.01563,-0.347656 0.01172,-0.15625 0.01953,-0.273437 0.01953,-0.347656 0,-0.101562 -0.0078,-0.25 -0.01953,-0.453125 -0.01172,-0.203125 -0.01563,-0.355469 -0.01563,-0.457031 0,-0.09375 0.152344,-0.144532 0.453125,-0.152344 0.171875,-0.0078 0.261719,-0.05469 0.277344,-0.144531 0.02734,-0.179688 0.03906,-0.460938 0.02734,-0.851563 -0.01953,-0.609375 -0.02734,-0.898437 -0.02734,-0.871094 0,-0.546874 0.05078,-0.824218 0.15625,-0.824218 0.125,0 0.308594,0.03125 0.546875,0.08594 0.269531,0.0625 0.453125,0.09766 0.558593,0.105469 0.242188,0.03516 0.605469,0.07813 1.09375,0.136719 0.117188,0.0078 0.175782,0.05078 0.175782,0.121093 0,0.1875 -0.01563,0.472657 -0.04687,0.859376 -0.03125,0.382812 -0.04687,0.667968 -0.04687,0.863281 0,0.230469 0.07031,0.347656 0.207031,0.347656 0.164063,0 0.417969,-0.0078 0.75,-0.01953 0.335937,-0.01563 0.589844,-0.02344 0.761719,-0.02344 0.101562,0 0.15625,0.03516 0.15625,0.105469 0,0.109375 -0.01172,0.273437 -0.03516,0.492187 -0.02344,0.214844 -0.03906,0.378907 -0.03906,0.488282 0,0.113281 0.0039,0.277344 0.0078,0.496094 0.0039,0.21875 0.0078,0.382812 0.0078,0.496093 0,0.09766 -0.06641,0.148438 -0.203125,0.148438 -0.09766,0 -0.253906,-0.0039 -0.476563,-0.01172 -0.222656,-0.0039 -0.382812,-0.0078 -0.476562,-0.0078 h -0.53125 c -0.07031,0 -0.105469,0.101562 -0.105469,0.3125 v 0.5 c 0.0039,0.230468 0.0078,0.398437 0.0078,0.503906 0,0.398437 0.04297,0.671875 0.132812,0.824218 0.128906,0.203126 0.378906,0.304688 0.753906,0.304688 0.117188,0 0.285157,-0.02734 0.503907,-0.08203 0.222656,-0.05469 0.375,-0.08203 0.464843,-0.08203 0.101563,0 0.148438,0.05469 0.148438,0.15625 m -5.925781,-6.445313 c 0,0.824219 -0.464844,1.234375 -1.390625,1.234375 -0.398438,0 -0.726563,-0.105469 -0.984375,-0.3125 -0.285157,-0.226562 -0.425781,-0.535156 -0.425781,-0.921875 0,-0.367187 0.144531,-0.671875 0.4375,-0.90625 C 39.667969,24.109375 39.992188,24 40.371094,24 c 0.367187,0 0.6875,0.113281 0.957031,0.332031 0.289063,0.238281 0.433594,0.539063 0.433594,0.902344 m -0.183594,5.269531 c 0,0.34375 0.0039,0.859375 0.01953,1.542969 0.01563,0.683594 0.01953,1.195313 0.01953,1.535156 0,0.09766 -0.05859,0.15625 -0.175782,0.175781 -0.160156,0.02734 -0.523437,0.04297 -1.085937,0.04297 -0.566407,0 -0.929688,-0.01563 -1.089844,-0.04297 -0.105469,-0.01953 -0.167969,-0.05078 -0.191406,-0.08984 -0.01172,-0.01953 -0.01563,-0.08984 -0.01563,-0.214844 0,-0.324219 0.0078,-0.816406 0.01953,-1.472656 0.01563,-0.652344 0.02344,-1.144531 0.02344,-1.476563 0,-1.34375 -0.05469,-2.410156 -0.15625,-3.207031 -0.01172,-0.07422 -0.01562,-0.125 -0.01562,-0.148437 0,-0.09375 0.06641,-0.140626 0.191406,-0.140626 0.132812,0 0.335937,0.01172 0.609375,0.04297 0.269531,0.02734 0.472656,0.04297 0.613281,0.04297 0.136719,0 0.339844,-0.01172 0.613281,-0.03516 0.277344,-0.02734 0.480469,-0.03906 0.617188,-0.03906 0.113281,0 0.171875,0.05078 0.171875,0.144531 0,0.01953 -0.0039,0.0625 -0.01563,0.132813 -0.101563,0.921875 -0.15625,1.992187 -0.15625,3.207031 m -5.804688,-0.234375 c 0,-0.375 -0.117187,-0.703125 -0.347656,-0.988281 -0.234375,-0.289062 -0.535156,-0.429688 -0.902344,-0.429688 -0.375,0 -0.679687,0.144532 -0.921875,0.4375 -0.226562,0.277344 -0.339844,0.601563 -0.339844,0.980469 0,0.382813 0.113282,0.710938 0.339844,0.984375 0.242188,0.292969 0.546875,0.441406 0.921875,0.441406 0.367188,0 0.671875,-0.148437 0.914063,-0.441406 0.222656,-0.273437 0.335937,-0.601562 0.335937,-0.984375 m 2.324219,0 c 0,1.078125 -0.328125,1.953125 -0.988281,2.625 -0.660157,0.671875 -1.527344,1.003907 -2.601563,1.003907 -1.039062,0 -1.894531,-0.328126 -2.566406,-0.992188 -0.671875,-0.660156 -1.007812,-1.511719 -1.007812,-2.550781 0,-1.097657 0.324218,-1.988281 0.964843,-2.671875 0.644531,-0.683594 1.515625,-1.023438 2.609375,-1.023438 1.070313,0 1.933594,0.335938 2.597656,1.003906 0.660157,0.667969 0.992188,1.535157 0.992188,2.605469 M 29.925781,29.09375 c -0.0078,0 -0.148437,-0.03906 -0.429687,-0.113281 -0.28125,-0.07813 -0.511719,-0.117188 -0.683594,-0.117188 -0.421875,0 -0.757812,0.128907 -1.007812,0.382813 -0.25,0.25 -0.375,0.589844 -0.375,1.007812 0,0.4375 0.136718,0.777344 0.410156,1.027344 0.273437,0.246094 0.628906,0.371094 1.070312,0.371094 0.207032,0 0.441406,-0.05469 0.703125,-0.160156 0.257813,-0.105469 0.382813,-0.160157 0.367188,-0.160157 0.08203,0 0.183593,0.300781 0.3125,0.902344 0.109375,0.546875 0.164062,0.910156 0.164062,1.089844 0,0.179687 -0.292969,0.335937 -0.878906,0.460937 -0.457031,0.101563 -0.820313,0.152344 -1.101563,0.152344 -1.039062,0 -1.898437,-0.351562 -2.574218,-1.050781 -0.675782,-0.699219 -1.011719,-1.574219 -1.011719,-2.617188 0,-1.035156 0.335937,-1.90625 1.015625,-2.613281 0.679688,-0.707031 1.535156,-1.058594 2.570312,-1.058594 0.707032,0 1.324219,0.148438 1.859376,0.453125 0.121093,0.06641 0.183593,0.128907 0.183593,0.191407 0,0.05859 -0.07031,0.339843 -0.210937,0.835937 -0.132813,0.476563 -0.21875,0.765625 -0.261719,0.863281 -0.03906,0.101563 -0.08203,0.152344 -0.121094,0.152344 m -5.71875,-1.074219 c 0,0.05078 -0.03516,0.113281 -0.105469,0.191407 -0.132812,-0.03125 -0.265624,-0.04688 -0.398437,-0.04688 -0.277344,0 -0.511719,0.05859 -0.699219,0.183594 -0.226562,0.140625 -0.339844,0.34375 -0.339844,0.601563 0,0.167969 0.117188,0.378906 0.359376,0.632812 0.363281,0.382813 0.589843,0.640625 0.675781,0.773438 0.238281,0.359375 0.359375,0.742187 0.359375,1.15625 0,0.238281 -0.04687,0.496093 -0.140625,0.765625 -0.109375,0.296875 -0.246094,0.515625 -0.410157,0.652344 -0.351562,0.300781 -0.761718,0.558593 -1.230468,0.765624 -0.503906,0.214844 -0.96875,0.324219 -1.394532,0.324219 -0.09375,0 -0.308593,-0.253906 -0.636718,-0.769531 -0.328125,-0.511719 -0.492188,-0.824219 -0.492188,-0.9375 0,-0.04297 0.02734,-0.07031 0.07813,-0.07813 0.332031,-0.0625 0.664063,-0.125 1,-0.183594 0.417969,-0.132812 0.625,-0.351562 0.625,-0.652343 0,-0.210938 -0.121093,-0.449219 -0.363281,-0.726563 -0.429688,-0.476563 -0.652344,-0.730469 -0.671875,-0.757813 -0.242187,-0.339843 -0.363281,-0.699218 -0.363281,-1.078124 0,-0.707032 0.359375,-1.3125 1.078125,-1.808594 0.644531,-0.4375 1.332031,-0.660156 2.066406,-0.660156 0.07422,0 0.261719,0.257812 0.558594,0.765624 0.296875,0.507813 0.445312,0.804688 0.445312,0.886719 M 18.875,25.234375 c 0,0.824219 -0.464844,1.234375 -1.390625,1.234375 -0.394531,0 -0.726563,-0.105469 -0.984375,-0.3125 -0.285156,-0.226562 -0.425781,-0.535156 -0.425781,-0.921875 0,-0.367187 0.144531,-0.671875 0.4375,-0.90625 C 16.78125,24.109375 17.105469,24 17.484375,24 c 0.371094,0 0.6875,0.113281 0.957031,0.332031 0.289063,0.238281 0.433594,0.539063 0.433594,0.902344 m -0.183594,5.269531 c 0,0.34375 0.0078,0.859375 0.01953,1.542969 0.01562,0.683594 0.02344,1.195313 0.02344,1.535156 0,0.09766 -0.0625,0.15625 -0.179687,0.175781 -0.160157,0.02734 -0.523438,0.04297 -1.085938,0.04297 -0.566406,0 -0.929688,-0.01563 -1.089844,-0.04297 -0.105468,-0.01953 -0.167968,-0.05078 -0.191406,-0.08984 -0.01172,-0.01953 -0.01563,-0.08984 -0.01563,-0.214844 0,-0.324219 0.0078,-0.816406 0.02344,-1.472656 0.01172,-0.652344 0.01953,-1.144531 0.01953,-1.476563 0,-1.34375 -0.05078,-2.410156 -0.15625,-3.207031 -0.0078,-0.07422 -0.01563,-0.125 -0.01563,-0.148437 0,-0.09375 0.06641,-0.140626 0.191406,-0.140626 0.132813,0 0.335937,0.01172 0.609375,0.04297 0.269531,0.02734 0.476562,0.04297 0.613281,0.04297 0.136719,0 0.339844,-0.01172 0.617188,-0.03516 0.273437,-0.02734 0.476562,-0.03906 0.617187,-0.03906 0.113282,0 0.167969,0.05078 0.167969,0.144531 0,0.01953 -0.0039,0.0625 -0.01172,0.132813 -0.105468,0.921875 -0.15625,1.992187 -0.15625,3.207031 m -6.3125,0.164063 c 0,-0.425781 -0.179687,-0.714844 -0.53125,-0.867188 -0.226562,-0.09375 -0.597656,-0.140625 -1.109375,-0.140625 -0.609375,0 -0.9375,0.02344 -0.992187,0.06641 -0.050782,0.04688 -0.078125,0.335938 -0.078125,0.867188 0,0.558594 0.03125,0.867188 0.09375,0.925781 0.0625,0.0625 0.402343,0.08984 1.019531,0.08984 0.511719,0 0.871094,-0.03906 1.078125,-0.121094 0.347656,-0.136719 0.519531,-0.410156 0.519531,-0.820312 m -0.214844,-3.964844 c 0,-0.40625 -0.203124,-0.675781 -0.609374,-0.808594 -0.226563,-0.07031 -0.597657,-0.105469 -1.121094,-0.105469 -0.507813,0 -0.765625,0.03516 -0.765625,0.113282 0,0.08984 -0.00781,0.222656 -0.023438,0.40625 -0.015625,0.183594 -0.023437,0.316406 -0.023437,0.40625 0,0.472656 0.039062,0.738281 0.121094,0.796875 0.050781,0.04297 0.351562,0.0625 0.898437,0.0625 1.015625,0 1.523437,-0.289063 1.523437,-0.871094 m 3.050782,3.992187 c 0,0.871094 -0.273438,1.589844 -0.816406,2.164063 -0.617188,0.65625 -1.707032,0.984375 -3.261719,0.984375 -0.117188,0 -0.289063,-0.0039 -0.511719,-0.0078 h -0.5 c -1.746094,0 -2.785156,-0.03516 -3.113281,-0.105469 -0.140625,-0.02734 -0.207031,-0.101563 -0.207031,-0.21875 0,-0.507813 0.027343,-1.273438 0.089843,-2.300781 0.058594,-1.023438 0.085938,-1.792969 0.085938,-2.304688 0,-0.546875 -0.027344,-1.578125 -0.082031,-3.089844 -0.015617,-0.386734 -0.04296,-0.968766 -0.078117,-1.74611 L 6.8125,23.972656 c -0.00781,-0.08984 0.066406,-0.144531 0.222656,-0.164062 0.152344,-0.01953 0.699219,-0.02734 1.640625,-0.02734 1.507813,0 2.390625,0.0039 2.644531,0.01172 1.164063,0.04297 2.023438,0.234375 2.574219,0.570312 0.734375,0.449219 1.101563,1.207031 1.101563,2.273438 0,0.28125 -0.08594,0.578125 -0.257813,0.886719 -0.121093,0.222656 -0.28125,0.445312 -0.480469,0.667968 -0.175781,0.195313 -0.261718,0.285156 -0.261718,0.269532 0,0.03516 0.05859,0.08594 0.183594,0.15625 0.332031,0.1875 0.589843,0.488281 0.78125,0.902343 0.167968,0.367188 0.253906,0.757813 0.253906,1.175781 M 52.316406,35.8125 c -0.3125,0.433594 -1.035156,0.445312 -1.613281,0.02734 -0.578125,-0.414063 -0.792969,-1.105469 -0.480469,-1.539063 0.3125,-0.429687 1.035156,-0.445312 1.613282,-0.02734 0.578124,0.417968 0.792968,1.105468 0.480468,1.539062 M 51.984375,33.45703 c -1.195313,-0.730469 -1.617187,-1.710937 -1.617187,-1.710937 0,0 -1.5,0.02344 -2.066407,1.628906 -0.539062,1.527344 -0.0039,3.074219 1.238281,4.0625 1.132813,0.902344 3.15625,1.355469 4.285157,0.394531 1.5,-1.273437 0.695312,-3.640625 0.695312,-3.640625 0,0 -1.476562,-0.08984 -2.535156,-0.734375 m 5.839844,2.914063 c -0.691407,0 -1.253907,-0.46875 -1.253907,-1.042969 0,-0.578125 0.5625,-1.042969 1.253907,-1.042969 0.695312,0 1.257812,0.464844 1.257812,1.042969 0,0.574219 -0.5625,1.042969 -1.257812,1.042969 m 3,-2.746094 C 60.6875,33.335938 60.46875,33.066406 60.207031,32.820312 c -0.40625,-0.375 -0.890625,-0.652343 -1.40625,-0.855468 L 58.304688,31.769531 58.015625,32.25 c -0.695313,0.886719 -1.097656,1.238281 -2.023437,1.503906 -0.101563,0.02734 -0.539063,0.15625 -0.539063,0.15625 0,0 0.04687,0.730469 -0.0039,1.625 -0.0625,1.207032 -0.195313,1.621094 -0.328125,1.914063 -0.06641,0.15625 3.632812,2.496093 5.546875,-0.542969 0.847656,-1.34375 0.484375,-2.582031 0.15625,-3.28125 m -6.460938,-4.253906 c 0.730469,0 1.320313,0.457031 1.320313,1.019531 0,0.5625 -0.589844,1.019531 -1.320313,1.019531 -0.730469,0 -1.324219,-0.457031 -1.324219,-1.019531 0,-0.5625 0.59375,-1.019531 1.324219,-1.019531 m -0.0625,4.003906 c 1.945313,0 3.523438,-1.351562 3.523438,-3.023438 0,-1.667968 -1.578125,-3.019531 -3.523438,-3.019531 -1.949219,0 -3.527343,1.351563 -3.527343,3.019531 0,1.671876 1.578124,3.023438 3.527343,3.023438"
       id="path2" />
  </g>
</svg>
